# xmcd CD database file
#
# Track frame offsets:
#	150
#	23443
#	51219
#	70042
#	103266
#	128709
#	158143
#	178066
#	197723
#	232200
#	248112
#	269290
#	291542
#	319829
#	337911
#
# Disc length: 4780 seconds
#
# Revision: 0
# Processed by: cddbd v1.5.1PL0 Copyright (c) Steve Scherf et al.
# Submitted via: CDex 1.50
#
DISCID=dc12aa0f
DTITLE=Art Pepper - Mosaic Select 15 Disc 3
DYEAR=1900
DGENRE=Jazz
TTITLE0=Holiday Flight
TTITLE1=Too Close For Comfort
TTITLE2=Long Ago And Far Away
TTITLE3=Begin The Beguine
TTITLE4=I Can't Believe That You're In Love With Me
TTITLE5=Summertime
TTITLE6=Fascinatin' Rhythm
TTITLE7=Body And Soul
TTITLE8=Without A Song
TTITLE9=The Breeze And I
TTITLE10=Surf Ride
TTITLE11=Webb City
TTITLE12=Begin The Beguine (Alt take)
TTITLE13=Fascinatin' Rhythm (Alt take)
TTITLE14=Webb City (Alt take)
EXTD=
EXTT0=
EXTT1=
EXTT2=
EXTT3=
EXTT4=
EXTT5=
EXTT6=
EXTT7=
EXTT8=
EXTT9=
EXTT10=
EXTT11=
EXTT12=
EXTT13=
EXTT14=
PLAYORDER=
